<?xml version="1.0" encoding="UTF-8" standalone="no"?>
<!-- Created with Inkscape (http://www.inkscape.org/) -->

<svg
   xmlns:dc="http://purl.org/dc/elements/1.1/"
   xmlns:cc="http://creativecommons.org/ns#"
   xmlns:rdf="http://www.w3.org/1999/02/22-rdf-syntax-ns#"
   xmlns:svg="http://www.w3.org/2000/svg"
   xmlns="http://www.w3.org/2000/svg"
   xmlns:sodipodi="http://sodipodi.sourceforge.net/DTD/sodipodi-0.dtd"
   xmlns:inkscape="http://www.inkscape.org/namespaces/inkscape"
   width="500"
   height="100"
   viewBox="0 0 500 99.999997"
   id="svg7526"
   version="1.1"
   inkscape:version="0.91 r13725"
   sodipodi:docname="mb1.svg">
  <defs
     id="defs7528" />
  <sodipodi:namedview
     id="base"
     pagecolor="#ffffff"
     bordercolor="#666666"
     borderopacity="1.0"
     inkscape:pageopacity="0.0"
     inkscape:pageshadow="2"
     inkscape:zoom="5.6"
     inkscape:cx="65.162476"
     inkscape:cy="53.919783"
     inkscape:document-units="px"
     inkscape:current-layer="layer1"
     showgrid="false"
     units="px"
     inkscape:window-width="1920"
     inkscape:window-height="1022"
     inkscape:window-x="0"
     inkscape:window-y="34"
     inkscape:window-maximized="1" />
  <metadata
     id="metadata7531">
    <rdf:RDF>
      <cc:Work
         rdf:about="">
        <dc:format>image/svg+xml</dc:format>
        <dc:type
           rdf:resource="http://purl.org/dc/dcmitype/StillImage" />
        <dc:title></dc:title>
      </cc:Work>
    </rdf:RDF>
  </metadata>
  <g
     inkscape:groupmode="layer"
     id="layer3"
     inkscape:label="bg"
     sodipodi:insensitive="true">
    <path
       style="fill:#87ceff;fill-opacity:1;stroke:#87ceeb;stroke-width:0;stroke-linecap:butt;stroke-miterlimit:4;stroke-dasharray:none;stroke-opacity:1"
       d="m 0.35546917,7.4580666e-7 0,99.99999825419334 389.72143083,0 L 499.99832,7.4580666e-7 l -499.64285083,0 z"
       id="rect8082"
       inkscape:connector-curvature="0" />
  </g>
  <g
     inkscape:label="Layer 1"
     inkscape:groupmode="layer"
     id="layer1"
     transform="translate(0,-952.36222)">
    <g
       transform="matrix(1.0832354,0,0,1.0832354,61.525685,-66.097955)"
       style="font-style:normal;font-weight:normal;font-size:39.26219177px;line-height:125%;font-family:sans-serif;letter-spacing:0px;word-spacing:0px;fill:#000000;fill-opacity:1;stroke:none;stroke-width:1px;stroke-linecap:butt;stroke-linejoin:miter;stroke-opacity:1"
       id="flowRoot8074">
      <path
         d="m 22.424119,997.29464 q -3.062451,0 -5.496707,-1.41344 -2.434256,-1.4527 -3.847695,-3.92622 -1.374176,-2.51278 -1.374176,-5.57523 0,-3.14097 1.334914,-5.61449 1.334915,-2.51278 3.690646,-3.92622 2.355732,-1.41344 5.300396,-1.41344 4.907774,0 7.970225,3.76917 0.314097,0.35336 0.314097,0.82451 0,0.62819 -0.667457,1.09934 -0.35336,0.23557 -0.745981,0.23557 -0.588933,0 -1.138604,-0.58893 -1.177866,-1.29565 -2.591305,-1.92385 -1.413439,-0.66746 -3.140975,-0.66746 -2.159421,0 -3.847695,1.06008 -1.688274,1.02082 -2.630567,2.9054 -0.90303,1.88459 -0.90303,4.24032 0,2.31647 0.981555,4.20106 0.981555,1.84532 2.748353,2.9054 1.766799,1.06008 4.044006,1.06008 3.140975,0 5.064823,-1.68828 0.510408,-0.43188 1.060079,-0.43188 0.471146,0 0.863768,0.3141 0.549671,0.47114 0.549671,1.06008 0,0.5104 -0.392622,0.86376 -2.826878,2.63057 -7.145719,2.63057 z"
         style="font-style:normal;font-variant:normal;font-weight:normal;font-stretch:normal;font-family:Comfortaa;-inkscape-font-specification:Comfortaa"
         id="path8118"
         inkscape:connector-curvature="0" />
      <path
         d="m 46.009041,997.29464 q -3.101713,0 -5.614494,-1.41344 -2.473518,-1.41344 -3.886957,-3.88696 -1.413439,-2.51278 -1.413439,-5.61449 0,-3.10171 1.413439,-5.61449 1.413439,-2.51278 3.886957,-3.92622 2.512781,-1.41344 5.614494,-1.41344 3.101713,0 5.575231,1.41344 2.473518,1.41344 3.886957,3.92622 1.452701,2.51278 1.452701,5.61449 0,3.10171 -1.413439,5.61449 -1.413439,2.47352 -3.926219,3.88696 -2.473518,1.41344 -5.575231,1.41344 z m 0,-2.74835 q 2.277207,0 4.083268,-1.06008 1.80606,-1.06008 2.826877,-2.9054 1.020817,-1.88459 1.020817,-4.20106 0,-2.35573 -1.020817,-4.20105 -1.020817,-1.88459 -2.826877,-2.94467 -1.806061,-1.06008 -4.083268,-1.06008 -2.237945,0 -4.083268,1.06008 -1.806061,1.06008 -2.86614,2.94467 -1.020817,1.84532 -1.020817,4.20105 0,2.31647 1.020817,4.20106 1.060079,1.84532 2.86614,2.9054 1.845323,1.06008 4.083268,1.06008 z"
         style="font-style:normal;font-variant:normal;font-weight:normal;font-stretch:normal;font-family:Comfortaa;-inkscape-font-specification:Comfortaa"
         id="path8120"
         inkscape:connector-curvature="0" />
      <path
         d="m 83.494005,976.76051 q 0.03926,0.11779 0.03926,0.35336 l 0,9.22662 q 0,3.06245 -1.452701,5.57523 -1.413439,2.51278 -3.926219,3.96548 -2.473518,1.41344 -5.535969,1.41344 -3.062451,0 -5.575232,-1.41344 -2.473518,-1.4527 -3.926219,-3.96548 -1.413439,-2.51278 -1.413439,-5.57523 0,-3.06245 1.374177,-5.53597 1.413439,-2.51278 3.808433,-3.92622 2.434255,-1.4527 5.418182,-1.4527 2.552043,0 4.672201,1.09934 2.120158,1.06008 3.494335,2.94467 l 0,-11.50383 q 0,-0.66745 0.431884,-1.09934 0.431884,-0.43188 1.099341,-0.43188 0.667458,0 1.06008,0.43188 0.431884,0.43189 0.431884,1.09934 l 0,8.79473 z m -10.875627,17.78578 q 2.237945,0 4.044005,-1.06008 1.806061,-1.09934 2.826878,-2.94467 1.060079,-1.88458 1.060079,-4.20105 0,-0.66746 -0.03926,-0.98156 -0.03926,-0.0785 -0.03926,-0.19631 -0.392622,-3.06245 -2.591305,-5.02556 -2.15942,-1.96311 -5.261133,-1.96311 -2.237945,0 -4.083268,1.06008 -1.806061,1.06008 -2.86614,2.94467 -1.020817,1.84532 -1.020817,4.16179 0,2.31647 1.020817,4.20105 1.060079,1.84533 2.86614,2.94467 1.845323,1.06008 4.083268,1.06008 z"
         style="font-style:normal;font-variant:normal;font-weight:normal;font-stretch:normal;font-family:Comfortaa;-inkscape-font-specification:Comfortaa"
         id="path8122"
         inkscape:connector-curvature="0" />
      <path
         d="m 92.76111,997.09833 q -0.667457,0 -1.099341,-0.43188 -0.431884,-0.43189 -0.431884,-1.09935 l 0,-18.41396 q 0,-0.66746 0.431884,-1.09935 0.431884,-0.43188 1.099341,-0.43188 0.667457,0 1.060079,0.43188 0.431884,0.43189 0.431884,1.09935 l 0,18.41396 q 0,0.66746 -0.431884,1.09935 -0.392622,0.43188 -1.060079,0.43188 z m -0.03926,-25.55969 q -0.90303,0 -1.531226,-0.62819 -0.588932,-0.6282 -0.588932,-1.53123 0,-0.94229 0.628195,-1.53122 0.628195,-0.58894 1.531225,-0.58894 0.863768,0 1.491963,0.58894 0.628196,0.58893 0.628196,1.53122 0,0.90303 -0.628196,1.53123 -0.628195,0.62819 -1.531225,0.62819 z"
         style="font-style:normal;font-variant:normal;font-weight:normal;font-stretch:normal;font-family:Comfortaa;-inkscape-font-specification:Comfortaa"
         id="path8124"
         inkscape:connector-curvature="0" />
      <path
         d="m 112.11983,975.38634 q 2.78761,0 4.98629,1.17786 2.23795,1.17787 3.49434,3.45508 1.25639,2.23794 1.25639,5.37892 l 0,10.20817 q 0,0.62819 -0.43189,1.06008 -0.43188,0.43188 -1.06007,0.43188 -0.66746,0 -1.09935,-0.43188 -0.43188,-0.43189 -0.43188,-1.06008 l 0,-10.20817 q 0,-3.49434 -1.96311,-5.3004 -1.92385,-1.84532 -5.06482,-1.84532 -1.92385,0 -3.49434,0.74598 -1.53122,0.74598 -2.43425,2.0809 -0.90303,1.29565 -0.90303,2.9054 l 0,11.62161 q 0,0.66745 -0.43189,1.09934 -0.39262,0.39262 -1.06008,0.39262 -0.66745,0 -1.09934,-0.39262 -0.43188,-0.43189 -0.43188,-1.09934 l 0,-18.45323 q 0,-0.66746 0.43188,-1.09935 0.43189,-0.43188 1.09934,-0.43188 0.66746,0 1.06008,0.43188 0.43189,0.43189 0.43189,1.09935 l 0,1.33491 q 1.29565,-1.4527 3.14097,-2.27721 1.84532,-0.8245 4.00475,-0.8245 z"
         style="font-style:normal;font-variant:normal;font-weight:normal;font-stretch:normal;font-family:Comfortaa;-inkscape-font-specification:Comfortaa"
         id="path8126"
         inkscape:connector-curvature="0" />
      <path
         d="m 138.33654,975.4256 q 3.14098,0 5.61449,1.41344 2.47352,1.37418 3.88696,3.88696 1.41344,2.47351 1.41344,5.65375 l 0,8.00949 q 0,3.14097 -1.41344,5.69306 -1.37418,2.552 -3.84769,4.0047 -2.47352,1.492 -5.57524,1.492 -3.02318,0 -5.37892,-1.1386 -2.35573,-1.1386 -3.96548,-3.1803 -0.35336,-0.3926 -0.35336,-0.903 0,-0.58894 0.54967,-1.02083 0.39263,-0.27483 0.86377,-0.27483 0.35336,0 0.70672,0.15705 0.35336,0.19631 0.54967,0.47114 1.17787,1.49197 2.98393,2.31647 1.80606,0.8245 4.08327,0.8245 2.19868,0 3.96548,-1.0993 1.80606,-1.0601 2.82688,-3.02322 1.02081,-1.92385 1.02081,-4.43663 l 0,-1.7668 q -1.17786,2.23795 -3.33728,3.5336 -2.15942,1.25639 -4.90778,1.25639 -3.06245,0 -5.4967,-1.37418 -2.395,-1.41344 -3.76917,-3.88695 -1.33492,-2.51278 -1.33492,-5.65376 0,-3.18024 1.41344,-5.65375 1.41344,-2.51278 3.88696,-3.88696 2.51278,-1.41344 5.61449,-1.41344 z m 0,19.12069 q 2.27721,0 4.08327,-1.02082 1.80606,-1.06008 2.82688,-2.9054 1.02081,-1.88459 1.02081,-4.24032 0,-2.35573 -1.02081,-4.20105 -1.02082,-1.88459 -2.82688,-2.94467 -1.80606,-1.06008 -4.08327,-1.06008 -2.31647,0 -4.12253,1.06008 -1.80606,1.06008 -2.82688,2.94467 -1.02081,1.84532 -1.02081,4.20105 0,2.35573 1.02081,4.24032 1.02082,1.84532 2.82688,2.9054 1.80606,1.02082 4.12253,1.02082 z"
         style="font-style:normal;font-variant:normal;font-weight:normal;font-stretch:normal;font-family:Comfortaa;-inkscape-font-specification:Comfortaa"
         id="path8128"
         inkscape:connector-curvature="0" />
      <path
         d="m 171.38487,994.93891 q 0.35336,0.39262 0.35336,0.90303 0,0.58893 -0.54967,1.06008 -0.47115,0.35336 -0.94229,0.35336 -0.6282,0 -1.06008,-0.54967 l -8.08802,-9.93334 -2.94466,2.66983 0,6.16417 q 0,0.66745 -0.43188,1.09934 -0.39263,0.39262 -1.06008,0.39262 -0.66746,0 -1.09934,-0.39262 -0.39263,-0.43189 -0.39263,-1.09934 l 0,-27.67985 q 0,-0.66746 0.39263,-1.06008 0.43188,-0.43188 1.09934,-0.43188 0.66745,0 1.06008,0.43188 0.43188,0.39262 0.43188,1.06008 l 0,17.8643 11.07194,-10.01186 q 0.43188,-0.39262 0.94229,-0.39262 0.58893,0 0.98156,0.47114 0.43188,0.51041 0.43188,0.9423 0,0.54967 -0.51041,0.98155 l -7.85244,7.10646 8.16654,10.05112 z"
         style="font-style:normal;font-variant:normal;font-weight:normal;font-stretch:normal;font-family:Comfortaa;-inkscape-font-specification:Comfortaa"
         id="path8130"
         inkscape:connector-curvature="0" />
      <path
         d="m 179.79742,997.09833 q -0.66746,0 -1.09934,-0.43188 -0.43189,-0.43189 -0.43189,-1.09935 l 0,-18.41396 q 0,-0.66746 0.43189,-1.09935 0.43188,-0.43188 1.09934,-0.43188 0.66746,0 1.06008,0.43188 0.43188,0.43189 0.43188,1.09935 l 0,18.41396 q 0,0.66746 -0.43188,1.09935 -0.39262,0.43188 -1.06008,0.43188 z m -0.0393,-25.55969 q -0.90303,0 -1.53123,-0.62819 -0.58893,-0.6282 -0.58893,-1.53123 0,-0.94229 0.62819,-1.53122 0.6282,-0.58894 1.53123,-0.58894 0.86377,0 1.49196,0.58894 0.6282,0.58893 0.6282,1.53122 0,0.90303 -0.6282,1.53123 -0.62819,0.62819 -1.53122,0.62819 z"
         style="font-style:normal;font-variant:normal;font-weight:normal;font-stretch:normal;font-family:Comfortaa;-inkscape-font-specification:Comfortaa"
         id="path8132"
         inkscape:connector-curvature="0" />
      <path
         d="m 209.63912,976.76051 q 0.0393,0.11779 0.0393,0.35336 l 0,9.22662 q 0,3.06245 -1.45271,5.57523 -1.41343,2.51278 -3.92621,3.96548 -2.47352,1.41344 -5.53597,1.41344 -3.06245,0 -5.57523,-1.41344 -2.47352,-1.4527 -3.92622,-3.96548 -1.41344,-2.51278 -1.41344,-5.57523 0,-3.06245 1.37417,-5.53597 1.41344,-2.51278 3.80844,-3.92622 2.43425,-1.4527 5.41818,-1.4527 2.55204,0 4.6722,1.09934 2.12016,1.06008 3.49433,2.94467 l 0,-11.50383 q 0,-0.66745 0.43189,-1.09934 0.43188,-0.43188 1.09934,-0.43188 0.66746,0 1.06008,0.43188 0.43188,0.43189 0.43188,1.09934 l 0,8.79473 z m -10.87562,17.78578 q 2.23794,0 4.044,-1.06008 1.80606,-1.09934 2.82688,-2.94467 1.06008,-1.88458 1.06008,-4.20105 0,-0.66746 -0.0393,-0.98156 -0.0393,-0.0785 -0.0393,-0.19631 -0.39262,-3.06245 -2.5913,-5.02556 -2.15942,-1.96311 -5.26113,-1.96311 -2.23795,0 -4.08327,1.06008 -1.80606,1.06008 -2.86614,2.94467 -1.02082,1.84532 -1.02082,4.16179 0,2.31647 1.02082,4.20105 1.06008,1.84533 2.86614,2.94467 1.84532,1.06008 4.08327,1.06008 z"
         style="font-style:normal;font-variant:normal;font-weight:normal;font-stretch:normal;font-family:Comfortaa;-inkscape-font-specification:Comfortaa"
         id="path8134"
         inkscape:connector-curvature="0" />
      <path
         d="m 217.45353,997.72652 q -0.94229,0 -1.60975,-0.66745 -0.66746,-0.66746 -0.66746,-1.60975 0,-0.98156 0.66746,-1.64901 0.70672,-0.66746 1.60975,-0.66746 0.94229,0 1.60975,0.70672 0.66745,0.66745 0.66745,1.60975 0,0.94229 -0.66745,1.60975 -0.66746,0.66745 -1.60975,0.66745 z"
         style="font-style:normal;font-variant:normal;font-weight:normal;font-stretch:normal;font-family:Comfortaa;-inkscape-font-specification:Comfortaa"
         id="path8136"
         inkscape:connector-curvature="0" />
      <path
         d="m 235.42765,975.38634 q 2.78761,0 4.9863,1.17786 2.23794,1.17787 3.49433,3.45508 1.25639,2.23794 1.25639,5.37892 l 0,10.20817 q 0,0.62819 -0.43188,1.06008 -0.43189,0.43188 -1.06008,0.43188 -0.66746,0 -1.09934,-0.43188 -0.43189,-0.43189 -0.43189,-1.06008 l 0,-10.20817 q 0,-3.49434 -1.96311,-5.3004 -1.92384,-1.84532 -5.06482,-1.84532 -1.92385,0 -3.49433,0.74598 -1.53123,0.74598 -2.43426,2.0809 -0.90303,1.29565 -0.90303,2.9054 l 0,11.62161 q 0,0.66745 -0.43188,1.09934 -0.39263,0.39262 -1.06008,0.39262 -0.66746,0 -1.09935,-0.39262 -0.43188,-0.43189 -0.43188,-1.09934 l 0,-18.45323 q 0,-0.66746 0.43188,-1.09935 0.43189,-0.43188 1.09935,-0.43188 0.66745,0 1.06008,0.43188 0.43188,0.43189 0.43188,1.09935 l 0,1.33491 q 1.29565,-1.4527 3.14097,-2.27721 1.84533,-0.8245 4.00475,-0.8245 z"
         style="font-style:normal;font-variant:normal;font-weight:normal;font-stretch:normal;font-family:Comfortaa;-inkscape-font-specification:Comfortaa"
         id="path8138"
         inkscape:connector-curvature="0" />
      <path
         d="m 254.02749,997.09833 q -0.66746,0 -1.09934,-0.43188 -0.43189,-0.43189 -0.43189,-1.09935 l 0,-18.41396 q 0,-0.66746 0.43189,-1.09935 0.43188,-0.43188 1.09934,-0.43188 0.66746,0 1.06008,0.43188 0.43188,0.43189 0.43188,1.09935 l 0,18.41396 q 0,0.66746 -0.43188,1.09935 -0.39262,0.43188 -1.06008,0.43188 z m -0.0393,-25.55969 q -0.90303,0 -1.53123,-0.62819 -0.58893,-0.6282 -0.58893,-1.53123 0,-0.94229 0.62819,-1.53122 0.6282,-0.58894 1.53123,-0.58894 0.86377,0 1.49196,0.58894 0.6282,0.58893 0.6282,1.53122 0,0.90303 -0.6282,1.53123 -0.62819,0.62819 -1.53122,0.62819 z"
         style="font-style:normal;font-variant:normal;font-weight:normal;font-stretch:normal;font-family:Comfortaa;-inkscape-font-specification:Comfortaa"
         id="path8140"
         inkscape:connector-curvature="0" />
      <path
         d="m 273.38621,975.38634 q 2.78761,0 4.98629,1.17786 2.23795,1.17787 3.49434,3.45508 1.25639,2.23794 1.25639,5.37892 l 0,10.20817 q 0,0.62819 -0.43189,1.06008 -0.43188,0.43188 -1.06007,0.43188 -0.66746,0 -1.09935,-0.43188 -0.43188,-0.43189 -0.43188,-1.06008 l 0,-10.20817 q 0,-3.49434 -1.96311,-5.3004 -1.92385,-1.84532 -5.06482,-1.84532 -1.92385,0 -3.49434,0.74598 -1.53122,0.74598 -2.43425,2.0809 -0.90303,1.29565 -0.90303,2.9054 l 0,11.62161 q 0,0.66745 -0.43189,1.09934 -0.39262,0.39262 -1.06008,0.39262 -0.66745,0 -1.09934,-0.39262 -0.43188,-0.43189 -0.43188,-1.09934 l 0,-18.45323 q 0,-0.66746 0.43188,-1.09935 0.43189,-0.43188 1.09934,-0.43188 0.66746,0 1.06008,0.43188 0.43189,0.43189 0.43189,1.09935 l 0,1.33491 q 1.29565,-1.4527 3.14097,-2.27721 1.84532,-0.8245 4.00475,-0.8245 z"
         style="font-style:normal;font-variant:normal;font-weight:normal;font-stretch:normal;font-family:Comfortaa;-inkscape-font-specification:Comfortaa"
         id="path8142"
         inkscape:connector-curvature="0" />
      <path
         d="m 284.13361,1006.2857 q -0.66746,0 -1.09934,-0.4319 -0.43189,-0.4319 -0.43189,-1.0993 0,-0.6675 0.43189,-1.0994 0.43188,-0.4319 1.09934,-0.4319 2.70909,0 4.43663,-1.7275 1.72753,-1.72754 1.72753,-4.39737 l 0,-19.94519 q 0,-0.66746 0.39263,-1.09935 0.43188,-0.43188 1.09934,-0.43188 0.66745,0 1.09934,0.43188 0.43188,0.43189 0.43188,1.09935 l 0,19.94519 q 0,2.66983 -1.17786,4.75077 -1.17787,2.0809 -3.25877,3.2587 -2.08089,1.1779 -4.75072,1.1779 z m 7.61686,-34.74706 q -0.90303,0 -1.53122,-0.62819 -0.58893,-0.6282 -0.58893,-1.53123 0,-0.94229 0.62819,-1.53122 0.6282,-0.58894 1.53123,-0.58894 0.86376,0 1.49196,0.58894 0.62819,0.58893 0.62819,1.53122 0,0.90303 -0.62819,1.53123 -0.6282,0.62819 -1.53123,0.62819 z"
         style="font-style:normal;font-variant:normal;font-weight:normal;font-stretch:normal;font-family:Comfortaa;-inkscape-font-specification:Comfortaa"
         id="path8144"
         inkscape:connector-curvature="0" />
      <path
         d="m 309.7252,975.4256 q 3.06245,0 5.53597,1.4527 2.51278,1.41344 3.92621,3.92622 1.45271,2.51278 1.45271,5.57523 l 0,9.22662 q 0,0.62819 -0.43189,1.06008 -0.43188,0.43188 -1.09934,0.43188 -0.66746,0 -1.09934,-0.39262 -0.43188,-0.43189 -0.43188,-1.09934 l 0,-2.35574 q -1.37418,1.88459 -3.49434,2.98393 -2.12016,1.06008 -4.6722,1.06008 -2.98393,0 -5.41818,-1.41344 -2.395,-1.4527 -3.80844,-3.92622 -1.37417,-2.51278 -1.37417,-5.57523 0,-3.06245 1.41344,-5.57523 1.4527,-2.51278 3.92622,-3.92622 2.51278,-1.4527 5.57523,-1.4527 z m 0,19.12069 q 2.23794,0 4.044,-1.06008 1.80606,-1.06008 2.82688,-2.9054 1.06008,-1.88459 1.06008,-4.20106 0,-2.31647 -1.06008,-4.16179 -1.02082,-1.88459 -2.82688,-2.94467 -1.80606,-1.09934 -4.044,-1.09934 -2.23795,0 -4.08327,1.09934 -1.80606,1.06008 -2.86614,2.94467 -1.02082,1.84532 -1.02082,4.16179 0,2.31647 1.02082,4.20106 1.06008,1.84532 2.86614,2.9054 1.84532,1.06008 4.08327,1.06008 z"
         style="font-style:normal;font-variant:normal;font-weight:normal;font-stretch:normal;font-family:Comfortaa;-inkscape-font-specification:Comfortaa"
         id="path8146"
         inkscape:connector-curvature="0" />
    </g>
    <flowRoot
       xml:space="preserve"
       id="flowRoot9023"
       style="font-style:normal;font-weight:normal;font-size:16.25px;line-height:125%;font-family:sans-serif;letter-spacing:0px;word-spacing:0px;fill:#000000;fill-opacity:1;stroke:none;stroke-width:1px;stroke-linecap:butt;stroke-linejoin:miter;stroke-opacity:1"
       transform="matrix(0.11958236,0,0,0.11958236,-0.7723449,946.73164)"><flowRegion
         id="flowRegion9025"><rect
           id="rect9027"
           width="318"
           height="233"
           x="769"
           y="101.36221" /></flowRegion><flowPara
         id="flowPara9029" /></flowRoot>    <g
       id="g9203">
      <rect
         ry="5.4358392"
         y="959.51013"
         x="13.602429"
         height="34.668575"
         width="46.023441"
         id="rect8696"
         style="fill:#888a85;fill-opacity:1;stroke:#555753;stroke-width:2.98955894;stroke-linecap:butt;stroke-miterlimit:4;stroke-dasharray:none;stroke-opacity:1" />
      <g
         transform="matrix(-0.1006267,-0.06460812,0.06460812,-0.1006267,82.342585,1083.0577)"
         id="g8980">
        <g
           id="g8865"
           transform="matrix(0.83678522,0,0,1.0053911,102.39381,-6.6961588)">
          <rect
             ry="11.245906"
             y="346.64032"
             x="620.05695"
             height="121.44376"
             width="40.038235"
             id="rect8760"
             style="fill:#888a85;fill-opacity:1;stroke:#888a85;stroke-width:20.67101097;stroke-linecap:butt;stroke-miterlimit:4;stroke-dasharray:none;stroke-opacity:1" />
          <g
             id="g8859">
            <rect
               style="fill:#555753;fill-opacity:1;stroke:#888a85;stroke-width:0;stroke-linecap:butt;stroke-miterlimit:4;stroke-dasharray:none;stroke-opacity:1"
               id="rect8762"
               width="57.127422"
               height="17.427309"
               x="611.51233"
               y="385.24127"
               ry="0" />
            <rect
               style="fill:#555753;fill-opacity:1;stroke:#888a85;stroke-width:0;stroke-linecap:butt;stroke-miterlimit:4;stroke-dasharray:none;stroke-opacity:1"
               id="rect8762-2"
               width="57.127422"
               height="17.427309"
               x="611.51233"
               y="433.24728"
               ry="0" />
            <rect
               style="fill:#555753;fill-opacity:1;stroke:#888a85;stroke-width:0;stroke-linecap:butt;stroke-miterlimit:4;stroke-dasharray:none;stroke-opacity:1"
               id="rect8762-7"
               width="57.127422"
               height="17.427309"
               x="611.51233"
               y="409.24429"
               ry="0" />
            <rect
               style="fill:#555753;fill-opacity:1;stroke:#888a85;stroke-width:0;stroke-linecap:butt;stroke-miterlimit:4;stroke-dasharray:none;stroke-opacity:1"
               id="rect8762-9"
               width="57.127422"
               height="17.427309"
               x="611.51233"
               y="361.23828"
               ry="0" />
          </g>
        </g>
        <g
           id="g8976"
           transform="translate(-1.562505,16.996429)">
          <path
             sodipodi:nodetypes="ccccc"
             inkscape:connector-curvature="0"
             id="rect8813-1"
             d="m 639.56396,329.33095 -25.35327,0 0,-218.41895 25.35327,-38.60338 z"
             style="fill:#babdb6;fill-opacity:1;stroke:#babdb6;stroke-width:0;stroke-linecap:butt;stroke-miterlimit:4;stroke-dasharray:none;stroke-opacity:1" />
          <path
             sodipodi:nodetypes="ccccc"
             inkscape:connector-curvature="0"
             id="rect8813-1-9"
             d="m 639.56105,329.33087 25.35327,-0.01 0,-218.40907 -25.35327,-38.60338 z"
             style="fill:#d3d7cf;fill-opacity:1;stroke:#d3d7cf;stroke-width:0;stroke-linecap:butt;stroke-miterlimit:4;stroke-dasharray:none;stroke-opacity:1" />
        </g>
        <rect
           style="fill:#888a85;fill-opacity:1;stroke:#d3d7cf;stroke-width:0;stroke-linecap:butt;stroke-miterlimit:4;stroke-dasharray:none;stroke-opacity:1"
           id="rect8908"
           width="87"
           height="24"
           x="594.5"
           y="338.36221"
           ry="10.5" />
      </g>
      <rect
         transform="matrix(0.56534159,-0.82485689,0.82485689,0.56534159,0,0)"
         ry="4.304965"
         y="598.56458"
         x="-842.76953"
         height="8.60993"
         width="33.363476"
         id="rect9039"
         style="fill:#2e3436;fill-opacity:1;stroke:#d3d7cf;stroke-width:0;stroke-linecap:butt;stroke-miterlimit:4;stroke-dasharray:none;stroke-opacity:1" />
      <g
         id="flowRoot8698"
         style="font-style:normal;font-weight:normal;font-size:19.74258804px;line-height:125%;font-family:sans-serif;letter-spacing:0px;word-spacing:0px;fill:#000000;fill-opacity:1;stroke:none;stroke-width:1px;stroke-linecap:butt;stroke-linejoin:miter;stroke-opacity:1"
         transform="matrix(0.05494247,0,0,0.05494247,8.206149,953.14289)">
        <path
           id="path9199"
           style="font-size:218.68713379px"
           d="m 163.08941,234.25911 0,-19.43411 136.89302,49.65309 0,17.72561 -136.89302,49.65309 0,-19.43411 109.98425,-38.975 -109.98425,-39.18857 z" />
        <path
           id="path9201"
           style="font-size:218.68713379px"
           d="m 434.63305,378.19967 0,15.26966 -113.6148,0 0,-15.26966 113.6148,0 z" />
      </g>
      <rect
         ry="1.9645674"
         y="994.84705"
         x="34.07737"
         height="35.02055"
         width="3.9291348"
         id="rect8710"
         style="fill:#555753;fill-opacity:1;stroke:#555753;stroke-width:2.98955894;stroke-linecap:butt;stroke-miterlimit:4;stroke-dasharray:none;stroke-opacity:1" />
      <rect
         transform="matrix(0.70710678,0.70710678,-0.70710678,0.70710678,0,0)"
         ry="1.3446441"
         y="700.20831"
         x="750.73444"
         height="23.96974"
         width="4.3240662"
         id="rect8710-8"
         style="fill:#555753;fill-opacity:1;stroke:#555753;stroke-width:2.59462762;stroke-linecap:butt;stroke-miterlimit:4;stroke-dasharray:none;stroke-opacity:1" />
      <rect
         transform="matrix(-0.70710678,0.70710678,-0.70710678,-0.70710678,0,0)"
         ry="1.3446441"
         y="-775.2699"
         x="699.64264"
         height="23.96974"
         width="4.3240662"
         id="rect8710-8-8"
         style="fill:#555753;fill-opacity:1;stroke:#555753;stroke-width:2.59462762;stroke-linecap:butt;stroke-miterlimit:4;stroke-dasharray:none;stroke-opacity:1" />
      <rect
         transform="matrix(0.70710678,-0.70710678,-0.70710678,-0.70710678,0,0)"
         ry="1.3446441"
         y="-746.88873"
         x="-696.65253"
         height="23.96974"
         width="4.3240662"
         id="rect8710-8-7"
         style="fill:#555753;fill-opacity:1;stroke:#555753;stroke-width:2.59462762;stroke-linecap:butt;stroke-miterlimit:4;stroke-dasharray:none;stroke-opacity:1" />
      <rect
         transform="matrix(-0.70710678,-0.70710678,-0.70710678,0.70710678,0,0)"
         ry="1.3446441"
         y="672.11713"
         x="-747.45441"
         height="23.96974"
         width="4.3240662"
         id="rect8710-8-8-0"
         style="fill:#555753;fill-opacity:1;stroke:#555753;stroke-width:2.59462762;stroke-linecap:butt;stroke-miterlimit:4;stroke-dasharray:none;stroke-opacity:1" />
      <path
         inkscape:connector-curvature="0"
         id="rect9031"
         d="m 19.98634,993.24346 c -0.03077,-0.002 -0.05868,0.009 -0.06866,0.0373 l -2.281562,6.52186 -6.521716,2.28148 c -0.04278,0.043 -0.05725,0.1349 0,0.1544 l 6.442219,2.2019 2.201918,6.4423 c 0.04278,0.043 0.134479,0.057 0.154456,0 l 2.281562,-6.5218 6.521717,-2.2814 c 0.04278,-0.043 0.05725,-0.1349 0,-0.1544 l -6.44222,-2.20197 -2.201917,-6.44237 c -0.02139,-0.0214 -0.05503,-0.0355 -0.08579,-0.0373 z m -0.07174,6.88934 a 1.9489314,1.9489314 0 0 1 1.949664,1.9479 l 0,0 a 1.9489314,1.9489314 0 0 1 -1.948639,1.9489 1.9489314,1.9489314 0 0 1 -1.949225,-1.9483 1.9489314,1.9489314 0 0 1 1.9482,-1.9496 z"
         style="fill:#d3d7cf;fill-opacity:1;stroke:#d3d7cf;stroke-width:0;stroke-linecap:butt;stroke-miterlimit:4;stroke-dasharray:none;stroke-opacity:1" />
    </g>
  </g>
</svg>
